<svg height="512" viewBox="0 0 24 24" width="512" xmlns="http://www.w3.org/2000/svg"><path d="M22.5 24h-21C.673 24 0 23.327 0 22.5V9.022c0-.491.24-.951.643-1.231L11.714.089a.501.501 0 01.571 0l11.071 7.702A1.5 1.5 0 0124 9.022V22.5c0 .827-.673 1.5-1.5 1.5zM12 1.109L1.214 8.612a.501.501 0 00-.214.41V22.5a.5.5 0 00.5.5h21a.5.5 0 00.5-.5V9.022a.502.502 0 00-.214-.411z"/><path d="M19 24h-7a.5.5 0 01-.5-.5v-6a.5.5 0 01.5-.5h7a.5.5 0 01.5.5v6a.5.5 0 01-.5.5zm-6.5-1h6v-5h-6z"/><path d="M15.5 18h-7a.5.5 0 01-.5-.5v-6a.5.5 0 01.5-.5h7a.5.5 0 01.5.5v6a.5.5 0 01-.5.5zM9 17h6v-5H9z"/><path d="M12 24H5a.5.5 0 01-.5-.5v-6A.5.5 0 015 17h7a.5.5 0 01.5.5v6a.5.5 0 01-.5.5zm-6.5-1h6v-5h-6zm6.5-9.5a.5.5 0 01-.5-.5v-1.5a.5.5 0 011 0V13a.5.5 0 01-.5.5z"/><path d="M8.5 19.5A.5.5 0 018 19v-1.5a.5.5 0 011 0V19a.5.5 0 01-.5.5zm7 0a.5.5 0 01-.5-.5v-1.5a.5.5 0 011 0V19a.5.5 0 01-.5.5z"/></svg>