<svg xmlns="http://www.w3.org/2000/svg" viewBox="0 0 512 512"><path d="M444.575 0H67.425C33.788 0 6.422 27.366 6.422 61.003v435.839c0 8.371 6.787 15.158 15.158 15.158h468.84c8.371 0 15.158-6.787 15.158-15.158V61.003C505.578 27.366 478.212 0 444.575 0zM393.16 481.684H118.84v-46.582h274.32v46.582zm0-76.896H118.84v-46.582h274.32v46.582zm0-76.898H118.84v-46.582h274.32v46.582zm0-76.898H118.84V204.41h274.32v46.582zm82.102 230.692h-51.786V189.252c0-8.371-6.787-15.158-15.158-15.158H103.682c-8.371 0-15.158 6.787-15.158 15.158v292.432H36.738V61.003c0-16.921 13.766-30.688 30.688-30.688h377.15c16.921 0 30.688 13.766 30.688 30.688v420.681z"/><path d="M408.318 87.048H103.682c-8.371 0-15.158 6.787-15.158 15.158s6.787 15.158 15.158 15.158h304.636c8.371 0 15.158-6.787 15.158-15.158s-6.787-15.158-15.158-15.158z"/></svg>