<svg height="512" width="512" xmlns="http://www.w3.org/2000/svg"><path d="M512 387.434a30 30 0 01-18.71 27.79l-226 91.81c-3.62 1.47-7.45 2.21-11.29 2.21s-7.67-.74-11.29-2.21l-226-91.81A30 30 0 010 387.434l.01-255.1c0-4.11 1.26-8.03 3.5-11.29 1.97-2.89 4.71-5.26 8.01-6.81l15.92-7.46L256 199.624l228.51-92.83 16.2 7.56a19.83 19.83 0 017.77 6.69c2.24 3.26 3.5 7.18 3.5 11.29z" fill="#f3d4b7"/><path d="M508.48 121.044l-102.03 41.45-40.31 16.38L256 223.624h-.01L3.51 121.044c1.97-2.89 4.71-5.26 8.01-6.81l15.92-7.46 93.09-43.64 37.63-17.64 88.75-41.61a29.949 29.949 0 0120.83 1.69l216.77 101.22 16.2 7.56a19.83 19.83 0 017.77 6.69z" fill="#dfc0a3"/><path d="M512 387.434a30 30 0 01-18.71 27.79l-226 91.81a29.988 29.988 0 01-11.29 2.21v-285.62l252.48-102.58c2.24 3.26 3.5 7.18 3.5 11.29z" fill="#e6c8a7"/><path d="M406.45 162.494l-40.31 16.38-245.61-115.74 37.63-17.64z" fill="#f3d4b7"/></svg>